<?xml version="1.0" encoding="UTF-8" standalone="no"?>
<!-- Created with Inkscape (http://www.inkscape.org/) -->

<svg
   width="32"
   height="32"
   viewBox="0 0 8.4666665 8.4666666"
   version="1.1"
   id="svg1"
   inkscape:version="1.3.2 (091e20e, 2023-11-25, custom)"
   sodipodi:docname="icon.svg"
   xmlns:inkscape="http://www.inkscape.org/namespaces/inkscape"
   xmlns:sodipodi="http://sodipodi.sourceforge.net/DTD/sodipodi-0.dtd"
   xmlns="http://www.w3.org/2000/svg"
   xmlns:svg="http://www.w3.org/2000/svg">
  <sodipodi:namedview
     id="namedview1"
     pagecolor="#ffffff"
     bordercolor="#000000"
     borderopacity="0.25"
     inkscape:showpageshadow="2"
     inkscape:pageopacity="0.0"
     inkscape:pagecheckerboard="0"
     inkscape:deskcolor="#d1d1d1"
     inkscape:document-units="mm"
     inkscape:zoom="5.911246"
     inkscape:cx="51.934905"
     inkscape:cy="53.542011"
     inkscape:window-width="2560"
     inkscape:window-height="1369"
     inkscape:window-x="-8"
     inkscape:window-y="-8"
     inkscape:window-maximized="1"
     inkscape:current-layer="layer1" />
  <defs
     id="defs1" />
  <g
     inkscape:label="Layer 1"
     inkscape:groupmode="layer"
     id="layer1">
    <g
       id="g1"
       transform="translate(-51.115139,-66.512344)">
      <path
         id="rect1"
         style="fill:#6dbdff;fill-opacity:0.993068;stroke-width:1.62803;stroke-linecap:round"
         d="m 51.115139,66.512344 h 8.466666 v 8.466667 h -8.466666 z" />
      <path
         d="m 51.444836,72.260826 1.163753,-3.030303 h 0.432014 l 1.240233,3.030303 h -0.456819 l -0.353466,-0.917773 h -1.267105 l -0.332796,0.917773 z m 0.874365,-1.244367 h 1.027326 l -0.316259,-0.839225 q -0.144694,-0.382405 -0.214974,-0.628385 -0.05788,0.291455 -0.163297,0.578776 z m 2.040184,1.244367 v -0.37207 l 1.552358,-1.940965 q 0.165365,-0.206706 0.314193,-0.359668 h -1.690852 v -0.3576 h 2.170409 v 0.3576 l -1.701187,2.102196 -0.183968,0.212907 h 1.934764 v 0.3576 z m 2.848402,0 v -3.030303 h 2.044318 v 0.3576 h -1.643309 v 0.938444 h 1.422134 v 0.3576 h -1.422134 v 1.376659 z"
         id="text1"
         style="font-size:4.23333px;line-height:1;font-family:Arial;-inkscape-font-specification:Arial;text-align:center;letter-spacing:0px;text-anchor:middle;fill-opacity:0.993068;stroke-width:2;stroke-linecap:round"
         inkscape:label="text1"
         aria-label="AZF" />
    </g>
  </g>
</svg>
